<?xml version="1.0" standalone="no"?>
<!DOCTYPE svg PUBLIC "-//W3C//DTD SVG 20010904//EN"
 "http://www.w3.org/TR/2001/REC-SVG-20010904/DTD/svg10.dtd">
<svg version="1.0" xmlns="http://www.w3.org/2000/svg"
 width="153.000000pt" height="161.000000pt" viewBox="0 0 153.000000 161.000000"
 preserveAspectRatio="xMidYMid meet">

<g transform="translate(0.000000,161.000000) scale(0.100000,-0.100000)"
fill="#FFFFFF" stroke="none">
<path d="M1397 1558 c-13 -18 -43 -66 -68 -105 -24 -41 -51 -73 -59 -73 -9 0
-37 13 -62 29 -36 23 -47 37 -54 67 -5 20 -14 39 -20 41 -6 2 -25 -23 -42 -55
-17 -32 -40 -66 -52 -77 -22 -20 -27 -45 -7 -45 6 0 29 4 50 9 48 11 120 -21
125 -57 2 -13 -15 -63 -38 -111 -24 -50 -40 -98 -38 -112 3 -23 7 -21 68 36
36 33 80 73 97 89 l33 29 53 -27 c71 -36 124 -44 133 -22 10 26 -16 65 -68
105 -29 21 -48 43 -48 55 0 11 12 67 26 124 25 99 26 132 5 132 -6 0 -21 -15
-34 -32z"/>
<path d="M707 1499 c-125 -18 -323 -121 -436 -225 -64 -59 -143 -170 -190
-267 -71 -143 -96 -424 -50 -566 49 -150 205 -350 328 -419 49 -28 52 -17 9
37 -217 271 -252 354 -252 591 0 151 13 216 69 336 58 127 137 216 269 306
113 78 195 102 396 118 74 6 147 15 162 21 30 12 44 37 29 52 -24 24 -218 33
-334 16z"/>
<path d="M743 1199 c-160 -16 -353 -177 -427 -357 -42 -103 -54 -203 -33 -299
21 -98 82 -222 143 -291 174 -198 490 -253 699 -121 110 69 224 190 260 275
39 94 49 291 19 393 -33 116 -126 251 -172 251 -26 0 -27 -8 -6 -38 15 -22 15
-25 -7 -48 -12 -13 -30 -24 -40 -24 -20 0 -56 43 -93 113 -24 45 -24 50 -10
72 9 13 13 29 9 34 -19 31 -210 53 -342 40z m78 -79 c4 -14 7 -76 8 -138 l1
-113 -52 7 c-113 15 -153 28 -156 51 -5 33 35 101 96 165 61 64 91 72 103 28z
m145 -2 c50 -44 114 -144 114 -179 0 -18 -7 -32 -20 -39 -29 -16 -156 -18
-172 -2 -15 15 -23 142 -13 207 5 39 9 45 30 45 13 0 41 -15 61 -32z m-331
-20 c-10 -33 -61 -110 -90 -138 -27 -26 -47 -22 -69 13 -13 20 7 44 88 104 66
49 80 53 71 21z m-150 -197 l41 -18 -11 -114 -10 -114 -97 -3 c-54 -1 -98 -1
-98 0 0 17 51 180 63 205 20 37 44 63 60 63 7 0 30 -9 52 -19z m825 -19 c28
-29 61 -115 75 -199 l7 -42 -94 6 c-51 3 -96 8 -100 12 -4 3 -10 54 -14 112
-7 104 -6 106 17 122 36 26 76 21 109 -11z m-184 -72 c7 -19 15 -63 19 -97 l7
-63 -141 0 -141 0 0 83 0 84 83 15 c45 9 100 15 122 14 36 -1 41 -4 51 -36z
m-393 19 c40 -6 78 -16 85 -21 7 -7 12 -37 12 -84 l0 -74 -89 0 c-48 0 -109 3
-135 6 l-46 7 6 66 c10 98 17 111 59 111 20 0 69 -5 108 -11z m-244 -248 c16
-10 30 -77 31 -149 0 -52 -1 -53 -37 -69 -26 -10 -46 -13 -63 -7 -49 17 -114
202 -79 225 18 11 130 11 148 0z m341 -45 c0 -30 -3 -61 -6 -70 -12 -31 -195
-58 -227 -33 -19 13 -36 75 -37 130 l0 27 135 0 135 0 0 -54z m300 -12 c0 -85
-10 -104 -58 -104 -50 0 -171 27 -188 41 -20 17 -18 83 4 101 24 22 44 26 150
27 l92 1 0 -66z m210 57 c32 -9 37 -45 15 -112 -19 -56 -68 -119 -94 -119 -9
0 -31 9 -50 21 l-34 20 7 87 c5 64 11 90 23 100 18 13 91 15 133 3z m-536
-206 c20 -20 29 -106 19 -185 -11 -89 -28 -91 -107 -8 -73 77 -117 151 -99
169 12 12 108 37 150 38 12 1 28 -6 37 -14z m209 1 c83 -20 87 -26 54 -90 -36
-68 -87 -128 -134 -157 -35 -22 -36 -22 -49 -4 -10 13 -14 51 -14 126 0 146
11 156 143 125z m211 -75 c19 -21 19 -22 -5 -47 -33 -37 -127 -96 -145 -92
-12 2 -10 13 13 56 15 28 41 68 56 87 30 38 44 37 81 -4z m-656 -13 c54 -80
77 -138 53 -138 -13 0 -106 80 -132 113 -20 27 -20 29 -4 47 28 31 51 24 83
-22z"/>
</g>
</svg>
